<?xml version="1.0" encoding="UTF-8"?>
<svg id="_图层_1" data-name="图层_1" xmlns="http://www.w3.org/2000/svg" version="1.1" viewBox="0 0 566.93 566.93">
  <!-- Generator: Adobe Illustrator 29.5.1, SVG Export Plug-In . SVG Version: 2.1.0 Build 141)  -->
  <defs>
    <style>
      .st0 {
        fill: #ffffff;
        fill-rule: evenodd;
      }
    </style>
  </defs>
  <path class="st0" d="M544.03,247.01h-162.53c-19.32,0-45.37,9.95-58.19,22.23L61.09,520.28c-12.82,12.28-7.56,22.23,11.76,22.23h162.53c19.32,0,45.37-9.95,58.19-22.23l262.22-251.04c12.82-12.28,7.56-22.23-11.76-22.23ZM243.61,297.69L505.84,46.65c12.82-12.28,7.56-22.23-11.76-22.23h-162.53c-19.32,0-45.37,9.95-58.19,22.23L11.14,297.69c-12.82,12.28-7.56,22.23,11.76,22.23h162.53c19.32,0,45.37-9.95,58.19-22.23Z"/>
</svg>
